<?xml version="1.0" standalone="no"?>
<!DOCTYPE svg PUBLIC "-//W3C//DTD SVG 1.1//EN"
 "http://www.w3.org/Graphics/SVG/1.1/DTD/svg11.dtd">
<!-- Created with svg_stack (http://github.com/astraw/svg_stack) -->
<svg xmlns:sodipodi="http://sodipodi.sourceforge.net/DTD/sodipodi-0.dtd" xmlns="http://www.w3.org/2000/svg" version="1.1" width="45.0" height="45.0">
  <defs/>
  <g id="id0:id0" transform="matrix(1.25,0,0,1.25,0.0,0.0)"><g transform="translate(0.000000,36.000000) scale(0.040000,-0.040000)" fill="#fdfeff" stroke="none">
<path d="M0 450 l0 -450 450 0 450 0 0 450 0 450 -450 0 -450 0 0 -450z m457 320 l11 -23 4 24 c6 43 33 28 38 -21 5 -42 6 -44 18 -22 10 17 22 22 50 22 21 0 43 -5 50 -12 8 -8 15 -8 26 1 8 7 25 11 38 9 21 -3 23 -9 28 -78 5 -68 7 -75 27 -78 21 -3 22 1 25 69 3 75 17 99 52 86 13 -5 16 -21 16 -82 0 -68 -3 -79 -25 -101 -26 -26 -32 -44 -15 -44 6 0 10 -10 10 -23 0 -37 -40 -66 -106 -78 -32 -6 -67 -15 -76 -20 -10 -5 -29 -9 -43 -9 -14 0 -25 -4 -25 -10 0 -5 -9 -10 -20 -10 -25 0 -90 -65 -90 -90 0 -11 -4 -20 -9 -20 -4 0 -12 -32 -15 -70 -9 -86 -38 -130 -73 -111 -12 6 -33 11 -47 11 -14 0 -28 5 -31 10 -4 6 -15 8 -25 5 -34 -11 -65 6 -95 50 -17 25 -33 45 -37 45 -5 0 -8 9 -8 20 0 11 -4 20 -10 20 -5 0 -10 10 -10 23 0 13 -5 28 -11 34 -6 6 -10 55 -10 115 0 93 2 110 24 149 21 37 30 44 59 47 30 3 39 -2 68 -37 18 -23 41 -41 51 -41 10 0 21 -4 24 -10 3 -5 11 -10 17 -10 7 0 2 9 -10 20 -12 11 -25 20 -29 20 -4 0 -20 11 -36 24 -60 52 -19 150 62 145 72 -5 91 0 91 21 0 11 4 20 9 20 5 0 11 9 14 21 7 26 28 21 44 -11z"/>
<path d="M350 691 c0 -6 5 -13 10 -16 6 -3 10 -22 10 -41 0 -19 -4 -34 -10 -34 -5 0 -10 -4 -10 -10 0 -15 29 -12 46 4 8 8 14 30 14 49 0 27 -5 36 -25 45 -31 14 -35 15 -35 3z"/>
<path d="M490 691 c0 -6 5 -13 10 -16 6 -3 10 1 10 9 0 9 -4 16 -10 16 -5 0 -10 -4 -10 -9z"/>
<path d="M572 688 c3 -7 13 -15 24 -17 10 -1 27 -10 37 -19 16 -14 17 -13 17 7 0 12 -4 19 -10 16 -5 -3 -24 1 -41 10 -24 13 -30 13 -27 3z"/>
<path d="M510 638 c0 -23 4 -28 23 -28 13 0 28 -5 34 -11 7 -7 20 -9 29 -5 15 6 14 9 -10 21 -16 8 -33 15 -39 15 -5 0 -16 8 -23 18 -12 15 -13 14 -14 -10z"/>
<path d="M475 568 c-16 -16 -29 -18 -74 -14 l-55 5 26 -25 26 -26 63 22 c35 13 65 24 67 25 1 1 -6 9 -15 17 -16 14 -20 14 -38 -4z"/>
<path d="M655 571 c-5 -10 -4 -16 3 -19 7 -2 12 -19 12 -38 0 -29 -5 -36 -32 -48 -27 -12 -29 -15 -11 -15 12 -1 25 4 28 9 3 6 14 10 24 10 30 0 46 26 33 55 -7 14 -18 25 -26 25 -8 0 -16 8 -18 18 -3 14 -5 15 -13 3z"/>
<path d="M540 440 c-13 -9 -13 -10 0 -9 8 1 26 5 40 9 l25 8 -25 1 c-14 0 -32 -4 -40 -9z"/>
<path d="M453 417 c-18 -6 -33 -15 -33 -19 0 -4 -11 -8 -25 -8 -50 0 -105 -102 -105 -195 0 -28 -5 -56 -12 -63 -9 -9 -8 -12 5 -12 9 0 17 -5 17 -12 0 -6 7 -3 15 8 8 11 14 42 15 76 0 84 52 175 115 202 16 7 41 18 55 24 21 9 21 11 5 10 -11 0 -35 -6 -52 -11z"/>
</g>
</g>
  <g id="id1:id1" transform="matrix(1.25,0,0,1.25,0.0,0.0)"><g transform="translate(0.000000,36.000000) scale(0.040000,-0.040000)" fill="#e6f2f7" stroke="none">
<path d="M415 790 c-3 -6 1 -7 9 -4 18 7 21 14 7 14 -6 0 -13 -4 -16 -10z"/>
<path d="M476 792 c-2 -4 4 -8 14 -8 10 0 16 4 14 8 -3 4 -9 8 -14 8 -5 0 -11 -4 -14 -8z"/>
<path d="M461 734 c0 -11 3 -14 6 -6 3 7 2 16 -1 19 -3 4 -6 -2 -5 -13z"/>
<path d="M535 740 c-3 -6 1 -7 9 -4 18 7 21 14 7 14 -6 0 -13 -4 -16 -10z"/>
<path d="M600 746 c0 -2 7 -7 16 -10 8 -3 12 -2 9 4 -6 10 -25 14 -25 6z"/>
<path d="M650 735 c-7 -8 -9 -15 -6 -15 4 0 14 7 22 15 9 8 11 15 6 15 -5 0 -15 -7 -22 -15z"/>
<path d="M690 746 c0 -2 7 -7 16 -10 8 -3 12 -2 9 4 -6 10 -25 14 -25 6z"/>
<path d="M810 746 c0 -2 7 -7 16 -10 8 -3 12 -2 9 4 -6 10 -25 14 -25 6z"/>
<path d="M773 665 c0 -38 2 -53 4 -32 2 20 2 52 0 70 -2 17 -4 1 -4 -38z"/>
<path d="M335 710 c-6 -10 1 -14 18 -11 4 1 17 -4 28 -9 18 -10 19 -10 7 9 -13 22 -43 28 -53 11z"/>
<path d="M625 679 c-16 -10 -25 -19 -20 -19 6 0 17 5 25 10 11 7 17 4 22 -13 5 -18 6 -16 7 11 1 17 0 32 -1 31 -2 0 -16 -9 -33 -20z"/>
<path d="M412 640 c0 -14 2 -19 5 -12 2 6 2 18 0 25 -3 6 -5 1 -5 -13z"/>
<path d="M340 568 c0 -8 17 -14 46 -14 45 -2 45 -2 19 12 -34 17 -65 18 -65 2z"/>
<path d="M450 560 c-9 -6 -10 -10 -3 -10 6 0 15 5 18 10 8 12 4 12 -15 0z"/>
<path d="M667 556 c-4 -10 -1 -13 8 -9 8 3 12 9 9 14 -7 12 -11 11 -17 -5z"/>
<path d="M515 550 c-16 -7 -17 -9 -3 -9 9 -1 20 4 23 9 7 11 7 11 -20 0z"/>
<path d="M706 537 c3 -10 9 -15 12 -12 3 3 0 11 -7 18 -10 9 -11 8 -5 -6z"/>
<path d="M75 529 c-4 -6 -5 -12 -2 -15 2 -3 7 2 10 11 7 17 1 20 -8 4z"/>
<path d="M285 531 c-3 -5 -2 -12 3 -15 5 -3 9 1 9 9 0 17 -3 19 -12 6z"/>
<path d="M655 481 c-6 -11 13 -26 22 -17 4 3 1 6 -6 6 -7 0 -9 5 -6 10 3 6 4 10 1 10 -3 0 -7 -4 -11 -9z"/>
<path d="M515 430 c3 -5 11 -10 16 -10 6 0 7 5 4 10 -3 6 -11 10 -16 10 -6 0 -7 -4 -4 -10z"/>
<path d="M453 405 c0 -8 4 -12 9 -9 5 3 6 10 3 15 -9 13 -12 11 -12 -6z"/>
<path d="M678 413 c7 -3 16 -2 19 1 4 3 -2 6 -13 5 -11 0 -14 -3 -6 -6z"/>
<path d="M610 400 c-9 -6 -10 -10 -3 -10 6 0 15 5 18 10 8 12 4 12 -15 0z"/>
<path d="M408 393 c10 -4 9 -10 -5 -27 l-18 -21 22 19 c23 19 22 37 0 35 -8 0 -8 -2 1 -6z"/>
<path d="M538 373 c7 -3 16 -2 19 1 4 3 -2 6 -13 5 -11 0 -14 -3 -6 -6z"/>
<path d="M479 343 c-13 -17 -13 -17 6 -3 11 8 22 16 24 17 2 2 0 3 -6 3 -6 0 -17 -8 -24 -17z"/>
<path d="M70 311 c0 -6 4 -13 10 -16 6 -3 7 1 4 9 -7 18 -14 21 -14 7z"/>
<path d="M332 240 c0 -14 2 -19 5 -12 2 6 2 18 0 25 -3 6 -5 1 -5 -13z"/>
<path d="M422 200 c0 -14 2 -19 5 -12 2 6 2 18 0 25 -3 6 -5 1 -5 -13z"/>
<path d="M276 143 c-6 -14 -5 -15 5 -6 7 7 10 15 7 18 -3 3 -9 -2 -12 -12z"/>
<path d="M311 113 c-6 -10 -11 -12 -11 -5 0 6 -10 12 -21 12 -18 0 -19 -2 -9 -15 19 -23 56 -19 56 5 0 24 -2 25 -15 3z"/>
<path d="M381 90 c-13 -11 -19 -20 -14 -20 6 0 18 9 28 20 23 25 17 25 -14 0z"/>
</g>
</g>
  <g id="id2:id2" transform="matrix(1.25,0,0,1.25,0.0,0.0)"><g transform="translate(0.000000,36.000000) scale(0.040000,-0.040000)" fill="#cfe5f0" stroke="none">
<path d="M472 755 c0 -16 2 -22 5 -12 2 9 2 23 0 30 -3 6 -5 -1 -5 -18z"/>
<path d="M568 743 c6 -2 18 -2 25 0 6 3 1 5 -13 5 -14 0 -19 -2 -12 -5z"/>
<path d="M713 675 c0 -33 2 -45 4 -27 2 18 2 45 0 60 -2 15 -4 0 -4 -33z"/>
<path d="M833 675 c0 -33 2 -45 4 -27 2 18 2 45 0 60 -2 15 -4 0 -4 -33z"/>
<path d="M505 659 c-4 -6 -5 -12 -2 -15 2 -3 7 2 10 11 7 17 1 20 -8 4z"/>
<path d="M362 635 c0 -16 2 -22 5 -12 2 9 2 23 0 30 -3 6 -5 -1 -5 -18z"/>
<path d="M485 592 c-12 -17 -13 -22 -4 -15 9 7 19 10 22 6 4 -3 7 3 7 15 0 27 -1 27 -25 -6z"/>
<path d="M590 616 c0 -2 7 -7 16 -10 8 -3 12 -2 9 4 -6 10 -25 14 -25 6z"/>
<path d="M335 579 c-4 -6 -5 -12 -2 -15 2 -3 7 2 10 11 7 17 1 20 -8 4z"/>
<path d="M390 581 c0 -6 4 -13 10 -16 6 -3 7 1 4 9 -7 18 -14 21 -14 7z"/>
<path d="M656 582 c-3 -5 1 -9 9 -9 8 0 12 4 9 9 -3 4 -7 8 -9 8 -2 0 -6 -4 -9 -8z"/>
<path d="M71 494 c0 -11 3 -14 6 -6 3 7 2 16 -1 19 -3 4 -6 -2 -5 -13z"/>
<path d="M779 453 c-13 -16 -12 -17 4 -4 16 13 21 21 13 21 -2 0 -10 -8 -17 -17z"/>
<path d="M72 340 c0 -14 2 -19 5 -12 2 6 2 18 0 25 -3 6 -5 1 -5 -13z"/>
<path d="M445 299 c-4 -6 -5 -12 -2 -15 2 -3 7 2 10 11 7 17 1 20 -8 4z"/>
<path d="M91 264 c0 -11 3 -14 6 -6 3 7 2 16 -1 19 -3 4 -6 -2 -5 -13z"/>
<path d="M421 234 c0 -11 3 -14 6 -6 3 7 2 16 -1 19 -3 4 -6 -2 -5 -13z"/>
<path d="M283 200 c0 -25 2 -35 4 -22 2 12 2 32 0 45 -2 12 -4 2 -4 -23z"/>
<path d="M333 175 c0 -27 2 -38 4 -22 2 15 2 37 0 50 -2 12 -4 0 -4 -28z"/>
<path d="M412 155 c0 -16 2 -22 5 -12 2 9 2 23 0 30 -3 6 -5 -1 -5 -18z"/>
<path d="M160 146 c0 -2 8 -10 18 -17 15 -13 16 -12 3 4 -13 16 -21 21 -21 13z"/>
</g>
</g>
  <g id="id3:id3" transform="matrix(1.25,0,0,1.25,0.0,0.0)"><g transform="translate(0.000000,36.000000) scale(0.040000,-0.040000)" fill="#b5d5e6" stroke="none">
<path d="M503 745 c0 -22 2 -30 4 -17 2 12 2 30 0 40 -3 9 -5 -1 -4 -23z"/>
<path d="M390 696 c0 -2 8 -10 18 -17 15 -13 16 -12 3 4 -13 16 -21 21 -21 13z"/>
<path d="M220 596 c0 -2 8 -10 18 -17 15 -13 16 -12 3 4 -13 16 -21 21 -21 13z"/>
<path d="M738 583 c7 -3 16 -2 19 1 4 3 -2 6 -13 5 -11 0 -14 -3 -6 -6z"/>
<path d="M640 561 c0 -6 4 -13 10 -16 6 -3 7 1 4 9 -7 18 -14 21 -14 7z"/>
<path d="M308 503 c7 -3 16 -2 19 1 4 3 -2 6 -13 5 -11 0 -14 -3 -6 -6z"/>
<path d="M71 464 c0 -11 3 -14 6 -6 3 7 2 16 -1 19 -3 4 -6 -2 -5 -13z"/>
<path d="M71 374 c0 -11 3 -14 6 -6 3 7 2 16 -1 19 -3 4 -6 -2 -5 -13z"/>
</g>
</g>
  <g id="id4:id4" transform="matrix(1.25,0,0,1.25,0.0,0.0)"><g transform="translate(0.000000,36.000000) scale(0.040000,-0.040000)" fill="#9ac7de" stroke="none">
<path d="M666 732 c-9 -15 -9 -123 0 -132 5 -5 9 20 9 66 0 76 0 80 -9 66z"/>
<path d="M465 710 c-3 -5 -1 -10 4 -10 6 0 11 5 11 10 0 6 -2 10 -4 10 -3 0 -8 -4 -11 -10z"/>
<path d="M783 665 c0 -33 2 -45 4 -27 2 18 2 45 0 60 -2 15 -4 0 -4 -33z"/>
<path d="M720 533 c0 -14 2 -15 9 -4 5 8 18 12 30 8 12 -3 19 -1 15 4 -10 17 -54 10 -54 -8z"/>
<path d="M72 420 c0 -19 2 -27 5 -17 2 9 2 25 0 35 -3 9 -5 1 -5 -18z"/>
<path d="M325 119 c-4 -6 -5 -12 -2 -15 2 -3 7 2 10 11 7 17 1 20 -8 4z"/>
</g>
</g>
  <g id="id5:id5" transform="matrix(1.25,0,0,1.25,0.0,0.0)"><g transform="translate(0.000000,36.000000) scale(0.040000,-0.040000)" fill="#72c8da" stroke="none">
<path d="M437 719 c7 -7 15 -10 18 -7 3 3 -2 9 -12 12 -14 6 -15 5 -6 -5z"/>
<path d="M435 570 c-16 -7 -17 -9 -3 -9 9 -1 20 4 23 9 7 11 7 11 -20 0z"/>
<path d="M588 573 c7 -3 16 -2 19 1 4 3 -2 6 -13 5 -11 0 -14 -3 -6 -6z"/>
<path d="M335 550 c10 -11 20 -20 23 -20 3 0 -3 9 -13 20 -10 11 -20 20 -23 20 -3 0 3 -9 13 -20z"/>
<path d="M770 526 c0 -2 8 -10 18 -17 15 -13 16 -12 3 4 -13 16 -21 21 -21 13z"/>
<path d="M426 273 c-6 -14 -5 -15 5 -6 7 7 10 15 7 18 -3 3 -9 -2 -12 -12z"/>
<path d="M343 215 c0 -22 2 -30 4 -17 2 12 2 30 0 40 -3 9 -5 -1 -4 -23z"/>
<path d="M402 165 c0 -16 2 -22 5 -12 2 9 2 23 0 30 -3 6 -5 -1 -5 -18z"/>
</g>
</g>
  <g id="id6:id6" transform="matrix(1.25,0,0,1.25,0.0,0.0)"><g transform="translate(0.000000,36.000000) scale(0.040000,-0.040000)" fill="#7daacf" stroke="none">
<path d="M418 753 c7 -3 16 -2 19 1 4 3 -2 6 -13 5 -11 0 -14 -3 -6 -6z"/>
<path d="M692 726 c7 -8 15 -12 17 -11 5 6 -10 25 -20 25 -5 0 -4 -6 3 -14z"/>
<path d="M807 733 c6 -5 14 -31 16 -58 l4 -50 -1 54 c-1 39 -5 56 -16 58 -10 3 -11 2 -3 -4z"/>
<path d="M703 655 c0 -27 2 -38 4 -22 2 15 2 37 0 50 -2 12 -4 0 -4 -28z"/>
<path d="M175 140 c10 -11 20 -20 23 -20 3 0 -3 9 -13 20 -10 11 -20 20 -23 20 -3 0 3 -9 13 -20z"/>
</g>
</g>
  <g id="id7:id7" transform="matrix(1.25,0,0,1.25,0.0,0.0)"><g transform="translate(0.000000,36.000000) scale(0.040000,-0.040000)" fill="#4bb9d1" stroke="none">
<path d="M406 712 c-4 -7 -2 -12 4 -12 6 0 9 -3 7 -7 -3 -5 10 -8 28 -8 18 0 31 3 28 8 -2 4 -15 7 -28 7 -13 0 -25 5 -27 12 -3 9 -6 9 -12 0z"/>
<path d="M651 604 c0 -11 3 -14 6 -6 3 7 2 16 -1 19 -3 4 -6 -2 -5 -13z"/>
<path d="M728 443 c7 -3 16 -2 19 1 4 3 -2 6 -13 5 -11 0 -14 -3 -6 -6z"/>
<path d="M342 155 c0 -16 2 -22 5 -12 2 9 2 23 0 30 -3 6 -5 -1 -5 -18z"/>
<path d="M378 108 c-10 -10 -14 -18 -9 -18 10 0 36 29 30 34 -2 1 -12 -6 -21 -16z"/>
</g>
</g>
  <g id="id8:id8" transform="matrix(1.25,0,0,1.25,0.0,0.0)"><g transform="translate(0.000000,36.000000) scale(0.040000,-0.040000)" fill="#6397c3" stroke="none">
<path d="M578 733 c7 -3 16 -2 19 1 4 3 -2 6 -13 5 -11 0 -14 -3 -6 -6z"/>
<path d="M520 666 c0 -2 8 -10 18 -17 15 -13 16 -12 3 4 -13 16 -21 21 -21 13z"/>
<path d="M272 180 c0 -14 2 -19 5 -12 2 6 2 18 0 25 -3 6 -5 1 -5 -13z"/>
</g>
</g>
  <g id="id9:id9" transform="matrix(1.25,0,0,1.25,0.0,0.0)"><g transform="translate(0.000000,36.000000) scale(0.040000,-0.040000)" fill="#25aec7" stroke="none">
<path d="M444 666 c-3 -14 -4 -35 -1 -46 3 -11 1 -23 -4 -26 -5 -3 -9 1 -9 8 0 9 -3 9 -10 -2 -13 -21 4 -34 27 -22 10 6 17 13 16 16 -7 14 -2 27 7 21 6 -4 7 -12 4 -18 -4 -7 -3 -9 1 -4 5 4 8 23 8 42 0 19 -3 38 -8 43 -4 4 -5 0 -1 -8 4 -8 1 -7 -8 4 -14 18 -15 17 -22 -8z"/>
<path d="M626 622 c-3 -5 1 -9 9 -9 8 0 12 4 9 9 -3 4 -7 8 -9 8 -2 0 -6 -4 -9 -8z"/>
<path d="M621 588 c-1 -20 14 -24 25 -6 4 6 3 8 -4 4 -5 -3 -13 0 -15 6 -3 8 -6 6 -6 -4z"/>
<path d="M351 514 c0 -11 3 -14 6 -6 3 7 2 16 -1 19 -3 4 -6 -2 -5 -13z"/>
<path d="M766 504 c-3 -8 -10 -12 -16 -9 -5 3 -10 -3 -10 -14 0 -11 5 -23 10 -26 6 -3 10 1 10 9 0 9 7 16 15 16 8 0 15 6 15 14 0 21 -17 28 -24 10z"/>
<path d="M585 420 c3 -5 8 -10 11 -10 2 0 4 5 4 10 0 6 -5 10 -11 10 -5 0 -7 -4 -4 -10z"/>
<path d="M503 385 c0 -8 4 -12 9 -9 5 3 6 10 3 15 -9 13 -12 11 -12 -6z"/>
<path d="M453 373 c29 -8 19 -23 -12 -17 -16 4 -32 1 -35 -5 -5 -7 -1 -9 11 -5 16 5 16 4 3 -8 -8 -7 -23 -29 -32 -48 -9 -20 -17 -28 -17 -18 -1 9 4 20 9 23 6 3 10 11 10 18 0 6 -8 0 -17 -13 -12 -17 -17 -45 -18 -96 0 -78 4 -88 28 -79 16 7 28 90 14 104 -4 4 -4 16 0 27 6 17 8 17 14 -6 7 -24 7 -24 9 5 1 17 2 36 1 44 -2 7 2 10 8 6 10 -6 16 8 12 28 -1 5 3 6 7 3 5 -3 17 3 26 13 15 17 16 19 1 25 -9 3 -22 5 -28 5 -7 -1 -4 -3 6 -6z m-66 -220 c-3 -10 -5 -4 -5 12 0 17 2 24 5 18 2 -7 2 -21 0 -30z"/>
<path d="M348 103 c6 -2 18 -2 25 0 6 3 1 5 -13 5 -14 0 -19 -2 -12 -5z"/>
</g>
</g>
  <g id="id10:id10" transform="matrix(1.25,0,0,1.25,0.0,0.0)"><g transform="translate(0.000000,36.000000) scale(0.040000,-0.040000)" fill="#0ca0bf" stroke="none">
<path d="M486 755 c4 -8 8 -15 10 -15 2 0 4 7 4 15 0 8 -4 15 -10 15 -5 0 -7 -7 -4 -15z"/>
<path d="M426 675 c4 -8 10 -12 15 -9 14 8 10 24 -6 24 -9 0 -12 -6 -9 -15z"/>
<path d="M460 683 c0 -7 5 -15 10 -18 15 -9 12 -52 -4 -58 -7 -3 -18 -1 -23 4 -7 7 -12 3 -16 -11 -4 -17 -3 -19 8 -10 10 8 15 8 20 0 9 -15 34 18 34 45 0 11 -6 29 -14 39 -8 11 -15 15 -15 9z"/>
<path d="M623 618 c6 -20 15 -34 19 -32 12 8 9 16 -11 44 l-19 24 11 -36z"/>
<path d="M710 569 c0 -5 5 -7 10 -4 6 3 10 8 10 11 0 2 -4 4 -10 4 -5 0 -10 -5 -10 -11z"/>
<path d="M305 560 c-5 -9 35 -43 43 -36 2 3 -6 14 -17 25 -11 11 -23 16 -26 11z"/>
<path d="M747 510 c3 -11 9 -17 14 -14 14 8 10 34 -5 34 -9 0 -12 -7 -9 -20z"/>
<path d="M723 469 c-5 -5 -37 -19 -69 -29 -64 -21 -28 -20 48 2 33 9 45 17 40 25 -6 9 -11 10 -19 2z"/>
<path d="M760 469 c0 -5 5 -7 10 -4 6 3 10 8 10 11 0 2 -4 4 -10 4 -5 0 -10 -5 -10 -11z"/>
<path d="M545 413 c-11 -3 -24 -9 -29 -14 -6 -5 -18 -9 -28 -9 -10 0 -18 -4 -18 -10 0 -5 -10 -10 -22 -10 -22 -1 -22 -1 -4 -11 11 -7 21 -8 25 -2 3 5 22 16 41 24 19 9 46 21 60 27 25 11 12 14 -25 5z"/>
<path d="M403 338 c-18 -25 -36 -68 -31 -73 3 -3 11 9 19 27 7 18 20 38 29 45 8 7 10 13 4 13 -6 0 -16 -6 -21 -12z"/>
<path d="M396 253 c-4 -9 -2 -21 4 -27 7 -7 10 -2 10 17 0 31 -5 34 -14 10z"/>
<path d="M382 165 c0 -16 2 -22 5 -12 2 9 2 23 0 30 -3 6 -5 -1 -5 -18z"/>
<path d="M349 138 c-5 -24 -3 -28 17 -28 13 0 24 4 24 10 0 5 -6 7 -14 4 -10 -4 -16 2 -18 18 -3 22 -4 21 -9 -4z"/>
</g>
</g>
  <g id="id11:id11" transform="matrix(1.25,0,0,1.25,0.0,0.0)"><g transform="translate(0.000000,36.000000) scale(0.040000,-0.040000)" fill="#3f81b7" stroke="none">
<path d="M441 754 c0 -11 3 -14 6 -6 3 7 2 16 -1 19 -3 4 -6 -2 -5 -13z"/>
<path d="M407 743 c-10 -9 -9 -23 1 -23 5 0 9 7 9 15 0 17 -1 18 -10 8z"/>
<path d="M673 675 c0 -27 2 -38 4 -22 2 15 2 37 0 50 -2 12 -4 0 -4 -28z"/>
<path d="M793 665 c0 -33 2 -45 4 -27 2 18 2 45 0 60 -2 15 -4 0 -4 -33z"/>
<path d="M351 634 c0 -11 3 -14 6 -6 3 7 2 16 -1 19 -3 4 -6 -2 -5 -13z"/>
<path d="M170 596 c0 -2 8 -10 18 -17 15 -13 16 -12 3 4 -13 16 -21 21 -21 13z"/>
<path d="M540 596 c0 -2 8 -10 18 -17 15 -13 16 -12 3 4 -13 16 -21 21 -21 13z"/>
<path d="M799 573 c-13 -16 -12 -17 4 -4 16 13 21 21 13 21 -2 0 -10 -8 -17 -17z"/>
<path d="M82 475 c0 -16 2 -22 5 -12 2 9 2 23 0 30 -3 6 -5 -1 -5 -18z"/>
<path d="M328 493 c7 -3 16 -2 19 1 4 3 -2 6 -13 5 -11 0 -14 -3 -6 -6z"/>
<path d="M82 360 c0 -19 2 -27 5 -17 2 9 2 25 0 35 -3 9 -5 1 -5 -18z"/>
<path d="M272 225 c0 -16 2 -22 5 -12 2 9 2 23 0 30 -3 6 -5 -1 -5 -18z"/>
</g>
</g>
  <g id="id12:id12" transform="matrix(1.25,0,0,1.25,0.0,0.0)"><g transform="translate(0.000000,36.000000) scale(0.040000,-0.040000)" fill="#236cab" stroke="none">
<path d="M560 722 c0 -10 36 -9 46 1 4 4 -5 7 -19 7 -15 0 -27 -4 -27 -8z"/>
<path d="M685 664 c-1 -35 3 -64 7 -64 10 0 11 117 1 123 -5 3 -8 -24 -8 -59z"/>
<path d="M810 677 l5 -52 3 44 c2 24 0 47 -5 52 -4 4 -6 -15 -3 -44z"/>
<path d="M246 691 c-3 -4 6 -6 19 -3 14 2 25 6 25 8 0 8 -39 4 -44 -5z"/>
<path d="M521 684 c0 -11 3 -14 6 -6 3 7 2 16 -1 19 -3 4 -6 -2 -5 -13z"/>
<path d="M222 635 c0 -16 2 -22 5 -12 2 9 2 23 0 30 -3 6 -5 -1 -5 -18z"/>
<path d="M695 580 c3 -5 8 -10 11 -10 2 0 4 5 4 10 0 6 -5 10 -11 10 -5 0 -7 -4 -4 -10z"/>
<path d="M550 575 c0 -14 29 -35 35 -26 3 6 -4 15 -15 21 -11 6 -20 8 -20 5z"/>
<path d="M730 570 c-9 -6 -10 -10 -3 -10 6 0 15 5 18 10 8 12 4 12 -15 0z"/>
<path d="M538 533 c7 -3 16 -2 19 1 4 3 -2 6 -13 5 -11 0 -14 -3 -6 -6z"/>
<path d="M298 493 c7 -3 16 -2 19 1 4 3 -2 6 -13 5 -11 0 -14 -3 -6 -6z"/>
<path d="M354 493 c7 -7 77 -5 85 3 2 2 -17 4 -44 4 -27 0 -45 -3 -41 -7z"/>
<path d="M558 463 c7 -3 16 -2 19 1 4 3 -2 6 -13 5 -11 0 -14 -3 -6 -6z"/>
<path d="M82 420 c0 -19 2 -27 5 -17 2 9 2 25 0 35 -3 9 -5 1 -5 -18z"/>
<path d="M324 368 l-19 -23 23 19 c21 18 27 26 19 26 -2 0 -12 -10 -23 -22z"/>
<path d="M271 264 c0 -11 3 -14 6 -6 3 7 2 16 -1 19 -3 4 -6 -2 -5 -13z"/>
<path d="M120 231 c0 -6 4 -13 10 -16 6 -3 7 1 4 9 -7 18 -14 21 -14 7z"/>
</g>
</g>
  <g id="id13:id13" transform="matrix(1.25,0,0,1.25,0.0,0.0)"><g transform="translate(0.000000,36.000000) scale(0.040000,-0.040000)" fill="#035ea1" stroke="none">
<path d="M683 675 c0 -27 2 -38 4 -22 2 15 2 37 0 50 -2 12 -4 0 -4 -28z"/>
<path d="M803 680 c0 -25 2 -35 4 -22 2 12 2 32 0 45 -2 12 -4 2 -4 -23z"/>
<path d="M536 672 c-3 -5 1 -9 9 -9 8 0 12 4 9 9 -3 4 -7 8 -9 8 -2 0 -6 -4 -9 -8z"/>
<path d="M250 651 c0 -33 24 -67 44 -63 13 3 16 0 11 -9 -5 -8 -4 -10 4 -5 6 4 9 12 5 17 -3 5 0 16 6 24 6 8 9 23 5 35 -9 28 -75 29 -75 1z"/>
<path d="M595 640 c-3 -5 1 -10 10 -10 9 0 13 5 10 10 -3 6 -8 10 -10 10 -2 0 -7 -4 -10 -10z"/>
<path d="M800 620 c0 -5 5 -10 10 -10 6 0 10 5 10 10 0 6 -4 10 -10 10 -5 0 -10 -4 -10 -10z"/>
<path d="M133 551 c-2 -9 -9 -24 -14 -33 -12 -24 -12 -195 1 -203 6 -3 10 -17 10 -31 0 -14 -4 -22 -10 -19 -5 3 -7 0 -4 -9 3 -8 12 -12 21 -9 13 5 15 1 11 -19 -4 -19 -1 -25 9 -21 7 3 13 1 13 -4 0 -21 48 -62 66 -57 16 4 19 13 16 65 -4 68 22 144 40 118 7 -10 8 -9 4 7 -7 23 45 81 63 70 7 -5 8 -1 4 10 -5 14 -1 15 28 10 19 -3 28 -3 22 0 -22 10 -14 24 13 24 14 0 22 -4 19 -10 -3 -6 1 -7 10 -3 13 4 14 8 4 14 -21 13 15 22 59 16 20 -3 31 -3 25 0 -7 2 -13 9 -13 14 0 14 68 11 73 -3 3 -8 6 -6 6 5 1 9 5 17 9 17 4 0 8 9 9 19 1 13 -3 18 -12 15 -7 -3 -16 -1 -20 5 -3 6 -1 11 6 11 7 0 10 3 6 6 -7 8 -53 -24 -49 -34 2 -4 -5 -9 -15 -10 -10 -2 -22 -8 -28 -13 -5 -5 -19 -9 -31 -9 -13 0 -26 -4 -29 -10 -7 -12 -75 -14 -75 -2 0 4 -9 8 -20 9 -11 1 -20 -2 -20 -8 0 -5 -10 -9 -23 -9 -34 0 -78 23 -72 38 3 8 0 10 -6 6 -6 -3 -22 6 -35 22 -28 31 -63 39 -71 15z"/>
<path d="M90 335 c0 -5 5 -17 10 -25 5 -8 10 -10 10 -5 0 6 -5 17 -10 25 -5 8 -10 11 -10 5z"/>
<path d="M262 190 c0 -14 2 -19 5 -12 2 6 2 18 0 25 -3 6 -5 1 -5 -13z"/>
</g>
</g>
  <g id="id14:id14" transform="matrix(1.25,0,0,1.25,0.0,0.0)"><g transform="translate(0.000000,36.000000) scale(0.040000,-0.040000)" fill="#045099" stroke="none">
<path d="M530 695 c0 -8 2 -15 4 -15 2 0 6 7 10 15 3 8 1 15 -4 15 -6 0 -10 -7 -10 -15z"/>
<path d="M264 679 c-3 -5 9 -9 25 -9 17 0 31 3 31 8 0 10 -49 12 -56 1z"/>
<path d="M239 676 c-11 -12 6 -89 21 -93 13 -4 13 -3 0 6 -13 10 -13 11 0 11 10 0 11 3 3 8 -6 4 -13 22 -15 41 -2 18 -6 30 -9 27z"/>
<path d="M328 664 c-4 -3 -4 -12 -1 -20 3 -8 0 -20 -6 -27 -8 -10 -7 -14 4 -14 8 0 17 8 20 18 7 20 -7 53 -17 43z"/>
<path d="M540 664 c0 -9 40 -23 44 -15 3 5 -5 11 -19 13 -14 3 -25 4 -25 2z"/>
<path d="M799 608 c-5 -18 -6 -38 -1 -34 7 8 12 36 6 36 -2 0 -4 -1 -5 -2z"/>
<path d="M280 580 c0 -5 4 -10 9 -10 6 0 13 5 16 10 3 6 -1 10 -9 10 -9 0 -16 -4 -16 -10z"/>
<path d="M746 572 c-2 -4 4 -8 14 -8 10 0 16 4 14 8 -3 4 -9 8 -14 8 -5 0 -11 -4 -14 -8z"/>
<path d="M119 563 c-1 -5 -1 -12 0 -16 1 -4 -5 -18 -14 -30 -21 -30 -21 -164 1 -195 9 -13 13 -29 10 -37 -3 -8 -1 -17 4 -20 6 -4 10 5 10 19 0 14 -4 28 -10 31 -12 8 -13 192 -1 199 12 8 20 56 10 56 -5 0 -10 -3 -10 -7z"/>
<path d="M190 556 c0 -9 5 -14 10 -11 6 3 10 0 10 -7 0 -14 21 -34 58 -55 25 -15 72 -17 72 -4 0 5 -9 7 -20 4 -12 -3 -29 2 -41 13 -12 11 -24 18 -28 18 -12 -3 -31 8 -26 16 2 4 -4 15 -15 25 -19 17 -20 17 -20 1z"/>
<path d="M602 553 c-6 -2 -10 -9 -6 -14 8 -14 21 -11 21 6 0 8 -1 15 -1 14 -1 0 -7 -3 -14 -6z"/>
<path d="M630 525 c0 -8 2 -15 4 -15 2 0 6 7 10 15 3 8 1 15 -4 15 -6 0 -10 -7 -10 -15z"/>
<path d="M507 515 c-26 -7 -54 -19 -62 -25 -8 -7 -26 -10 -40 -8 -14 3 -25 1 -25 -3 0 -12 67 -11 75 1 3 6 17 10 30 10 13 0 27 5 30 10 3 6 15 10 25 10 10 0 22 5 25 10 8 12 3 12 -58 -5z"/>
<path d="M610 490 c0 -5 5 -10 11 -10 5 0 7 5 4 10 -3 6 -8 10 -11 10 -2 0 -4 -4 -4 -10z"/>
<path d="M530 480 c0 -5 -15 -10 -34 -10 -19 0 -38 -4 -41 -10 -3 -5 -17 -10 -31 -10 -13 0 -24 -4 -24 -9 0 -6 12 -6 32 0 18 5 45 9 59 9 15 0 32 7 40 16 8 10 23 14 41 12 15 -3 28 -1 28 4 0 4 -16 8 -35 8 -19 0 -35 -4 -35 -10z"/>
<path d="M360 426 c0 -2 7 -6 15 -10 8 -3 15 -1 15 4 0 6 -7 10 -15 10 -8 0 -15 -2 -15 -4z"/>
<path d="M318 383 c-49 -52 -68 -99 -68 -165 0 -34 2 -59 4 -57 2 2 9 40 15 84 8 53 17 84 28 93 9 6 14 12 10 12 -4 0 3 11 15 24 13 13 26 21 31 19 4 -2 7 1 7 6 0 18 -15 12 -42 -16z"/>
<path d="M142 230 c0 -14 2 -19 5 -12 2 6 2 18 0 25 -3 6 -5 1 -5 -13z"/>
<path d="M160 202 c0 -23 2 -27 11 -24 5 1 9 -4 9 -12 0 -8 4 -18 10 -21 6 -4 7 1 3 12 -10 27 -33 59 -33 45z"/>
<path d="M242 134 c-7 -8 -8 -14 -3 -14 10 0 25 19 20 25 -2 1 -10 -3 -17 -11z"/>
</g>
</g>
  <g id="id15:id15" transform="matrix(1.25,0,0,1.25,0.0,0.0)"><g transform="translate(0.000000,36.000000) scale(0.040000,-0.040000)" fill="#033c8d" stroke="none">
<path d="M610 710 c0 -5 7 -10 16 -10 8 0 12 5 9 10 -3 6 -10 10 -16 10 -5 0 -9 -4 -9 -10z"/>
<path d="M250 679 c0 -5 5 -7 10 -4 6 3 10 8 10 11 0 2 -4 4 -10 4 -5 0 -10 -5 -10 -11z"/>
<path d="M232 635 c0 -16 2 -22 5 -12 2 9 2 23 0 30 -3 6 -5 -1 -5 -18z"/>
<path d="M315 600 c-3 -5 -1 -10 4 -10 6 0 11 5 11 10 0 6 -2 10 -4 10 -3 0 -8 -4 -11 -10z"/>
<path d="M775 579 c-16 -10 -25 -19 -19 -19 7 0 22 9 35 20 30 24 23 24 -16 -1z"/>
<path d="M134 579 c-5 -9 -2 -10 11 -6 9 4 24 2 33 -5 13 -11 14 -10 10 2 -6 19 -44 25 -54 9z"/>
<path d="M528 523 c7 -3 16 -2 19 1 4 3 -2 6 -13 5 -11 0 -14 -3 -6 -6z"/>
<path d="M632 510 c-8 -13 -8 -20 -2 -20 6 0 13 7 17 15 9 24 -1 27 -15 5z"/>
<path d="M298 483 c6 -2 18 -2 25 0 6 3 1 5 -13 5 -14 0 -19 -2 -12 -5z"/>
<path d="M403 483 c9 -2 23 -2 30 0 6 3 -1 5 -18 5 -16 0 -22 -2 -12 -5z"/>
<path d="M553 473 c9 -2 23 -2 30 0 6 3 -1 5 -18 5 -16 0 -22 -2 -12 -5z"/>
<path d="M418 433 c7 -3 16 -2 19 1 4 3 -2 6 -13 5 -11 0 -14 -3 -6 -6z"/>
<path d="M281 314 c0 -11 3 -14 6 -6 3 7 2 16 -1 19 -3 4 -6 -2 -5 -13z"/>
<path d="M111 294 c0 -11 3 -14 6 -6 3 7 2 16 -1 19 -3 4 -6 -2 -5 -13z"/>
<path d="M131 234 c0 -11 3 -14 6 -6 3 7 2 16 -1 19 -3 4 -6 -2 -5 -13z"/>
<path d="M196 146 c7 -17 54 -23 54 -6 0 5 -7 7 -15 4 -8 -4 -22 -1 -30 6 -13 11 -14 10 -9 -4z"/>
</g>
</g>
</svg>
